<?xml version="1.0" encoding="UTF-8"?><svg id="_图层_2" xmlns="http://www.w3.org/2000/svg" viewBox="0 0 17.2 21.02"><defs><style>.cls-1{fill:#fff;}</style></defs><g id="_图层_2-2"><rect class="cls-1" x="10.51" y="14.33" width="1.96" height="1.96"/><path class="cls-1" d="m16.68,15.83c.29,0,.53-.24.53-.53s-.24-.53-.53-.53h-1.51v-1.34h1.51c.29,0,.53-.24.53-.53s-.24-.53-.53-.53h-1.51v-.1c0-.35-.28-.63-.63-.63h-.12v-1.52c0-.29-.24-.53-.53-.53s-.53.24-.53.53v1.52h-1.34v-1.52c0-.29-.24-.53-.53-.53s-.53.24-.53.53v1.52h-1.34v-1.52c0-.29-.24-.53-.53-.53s-.53.24-.53.53v1.52h-.09c-.35,0-.63.28-.63.63v.12h-1.51c-.29,0-.53.24-.53.53s.24.53.53.53h1.51v1.34h-1.51c-.29,0-.53.24-.53.53s.24.53.53.53h1.51v1.34h-1.51c-.29,0-.53.24-.53.53s.24.53.53.53h1.51v.1c0,.35.28.63.63.63h.11v1.52c0,.29.24.53.53.53s.53-.24.53-.53v-1.52h1.34v1.52c0,.29.24.53.53.53s.53-.24.53-.53v-1.52h1.34v1.52c0,.29.24.53.53.53s.53-.24.53-.53v-1.52h.11c.35,0,.63-.28.63-.63v-.12h1.51c.29,0,.53-.24.53-.53s-.24-.53-.53-.53h-1.51v-1.34h1.51Zm-2.57,2.09h-5.23v-5.23h5.23v5.23Z"/><path class="cls-1" d="m4.24,18.43h-2.12c-.39,0-.71-.32-.71-.71V2.13c0-.39.32-.71.71-.71h9.93c.39,0,.71.32.71.71v5.67c0,.39.32.71.71.71s.71-.32.71-.71V2.13c0-1.17-.95-2.12-2.12-2.13H2.13C.95,0,0,.95,0,2.13v15.6c0,1.17.95,2.12,2.13,2.13h2.12c.39,0,.71-.32.71-.71s-.32-.71-.71-.71Z"/><path class="cls-1" d="m11.34,3.54c0-.39-.32-.71-.71-.71H3.54c-.39,0-.71.32-.71.71s.32.71.71.71h7.09c.39,0,.71-.32.71-.71Z"/><path class="cls-1" d="m3.54,5.88c-.39,0-.71.32-.71.71s.32.71.71.71h3.54c.39,0,.71-.32.71-.71s-.32-.71-.71-.71h-3.54Z"/></g></svg>